REM GoldWave
FILE "Зазнобин В.М. Будущее вырастает из настоящего (31 мая 2014 г.).m4a" BINARY
  TRACK 01 AUDIO
    TITLE "00:00:00.00000"
    PERFORMER "Владимир Михайлович Зазнобин. Видеоархив"
    INDEX 01 00:00:00
  TRACK 02 AUDIO
    TITLE "00:00:13.13730"
    PERFORMER "Владимир Михайлович Зазнобин. Видеоархив"
    INDEX 01 00:13:10
  TRACK 03 AUDIO
    TITLE "00:00:29.19290"
    PERFORMER "Владимир Михайлович Зазнобин. Видеоархив"
    INDEX 01 00:29:14
  TRACK 04 AUDIO
    TITLE "00:00:44.12744"
    PERFORMER "Владимир Михайлович Зазнобин. Видеоархив"
    INDEX 01 00:44:10
  TRACK 05 AUDIO
    TITLE "00:01:06.55878"
    PERFORMER "Владимир Михайлович Зазнобин. Видеоархив"
    INDEX 01 01:06:42
  TRACK 06 AUDIO
    TITLE "00:01:26.88778"
    PERFORMER "Владимир Михайлович Зазнобин. Видеоархив"
    INDEX 01 01:26:67
  TRACK 07 AUDIO
    TITLE "00:01:44.04630"
    PERFORMER "Владимир Михайлович Зазнобин. Видеоархив"
    INDEX 01 01:44:03
  TRACK 08 AUDIO
    TITLE "00:02:01.79186"
    PERFORMER "Владимир Михайлович Зазнобин. Видеоархив"
    INDEX 01 02:01:59
  TRACK 09 AUDIO
    TITLE "00:02:20.42812"
    PERFORMER "Владимир Михайлович Зазнобин. Видеоархив"
    INDEX 01 02:20:32
  TRACK 10 AUDIO
    TITLE "00:02:34.42737"
    PERFORMER "Владимир Михайлович Зазнобин. Видеоархив"
    INDEX 01 02:34:32
  TRACK 11 AUDIO
    TITLE "00:02:48.02814"
    PERFORMER "Владимир Михайлович Зазнобин. Видеоархив"
    INDEX 01 02:48:02
  TRACK 12 AUDIO
    TITLE "00:03:04.84025"
    PERFORMER "Владимир Михайлович Зазнобин. Видеоархив"
    INDEX 01 03:04:63
  TRACK 13 AUDIO
    TITLE "00:03:18.67601"
    PERFORMER "Владимир Михайлович Зазнобин. Видеоархив"
    INDEX 01 03:18:51
  TRACK 14 AUDIO
    TITLE "00:03:32.53594"
    PERFORMER "Владимир Михайлович Зазнобин. Видеоархив"
    INDEX 01 03:32:40
  TRACK 15 AUDIO
    TITLE "00:03:51.25626"
    PERFORMER "Владимир Михайлович Зазнобин. Видеоархив"
    INDEX 01 03:51:19
  TRACK 16 AUDIO
    TITLE "00:04:06.97562"
    PERFORMER "Владимир Михайлович Зазнобин. Видеоархив"
    INDEX 01 04:06:73
  TRACK 17 AUDIO
    TITLE "00:04:24.57304"
    PERFORMER "Владимир Михайлович Зазнобин. Видеоархив"
    INDEX 01 04:24:43
  TRACK 18 AUDIO
    TITLE "00:04:41.97537"
    PERFORMER "Владимир Михайлович Зазнобин. Видеоархив"
    INDEX 01 04:41:73
  TRACK 19 AUDIO
    TITLE "00:05:00.34649"
    PERFORMER "Владимир Михайлович Зазнобин. Видеоархив"
    INDEX 01 05:00:26
  TRACK 20 AUDIO
    TITLE "00:05:14.04293"
    PERFORMER "Владимир Михайлович Зазнобин. Видеоархив"
    INDEX 01 05:14:03
  TRACK 21 AUDIO
    TITLE "00:05:28.17265"
    PERFORMER "Владимир Михайлович Зазнобин. Видеоархив"
    INDEX 01 05:28:13
  TRACK 22 AUDIO
    TITLE "00:05:43.20844"
    PERFORMER "Владимир Михайлович Зазнобин. Видеоархив"
    INDEX 01 05:43:16
  TRACK 23 AUDIO
    TITLE "00:06:03.34472"
    PERFORMER "Владимир Михайлович Зазнобин. Видеоархив"
    INDEX 01 06:03:26
  TRACK 24 AUDIO
    TITLE "00:06:21.95449"
    PERFORMER "Владимир Михайлович Зазнобин. Видеоархив"
    INDEX 01 06:21:72
  TRACK 25 AUDIO
    TITLE "00:06:40.65113"
    PERFORMER "Владимир Михайлович Зазнобин. Видеоархив"
    INDEX 01 06:40:49
  TRACK 26 AUDIO
    TITLE "00:07:06.39689"
    PERFORMER "Владимир Михайлович Зазнобин. Видеоархив"
    INDEX 01 07:06:30
  TRACK 27 AUDIO
    TITLE "00:07:20.71005"
    PERFORMER "Владимир Михайлович Зазнобин. Видеоархив"
    INDEX 01 07:20:53
  TRACK 28 AUDIO
    TITLE "00:07:35.69104"
    PERFORMER "Владимир Михайлович Зазнобин. Видеоархив"
    INDEX 01 07:35:52
  TRACK 29 AUDIO
    TITLE "00:07:49.34522"
    PERFORMER "Владимир Михайлович Зазнобин. Видеоархив"
    INDEX 01 07:49:26
  TRACK 30 AUDIO
    TITLE "00:08:03.76939"
    PERFORMER "Владимир Михайлович Зазнобин. Видеоархив"
    INDEX 01 08:03:58
  TRACK 31 AUDIO
    TITLE "00:08:19.21431"
    PERFORMER "Владимир Михайлович Зазнобин. Видеоархив"
    INDEX 01 08:19:16
  TRACK 32 AUDIO
    TITLE "00:08:34.49853"
    PERFORMER "Владимир Михайлович Зазнобин. Видеоархив"
    INDEX 01 08:34:37
  TRACK 33 AUDIO
    TITLE "00:08:57.03760"
    PERFORMER "Владимир Михайлович Зазнобин. Видеоархив"
    INDEX 01 08:57:03
  TRACK 34 AUDIO
    TITLE "00:09:11.51889"
    PERFORMER "Владимир Михайлович Зазнобин. Видеоархив"
    INDEX 01 09:11:39
  TRACK 35 AUDIO
    TITLE "00:09:25.53810"
    PERFORMER "Владимир Михайлович Зазнобин. Видеоархив"
    INDEX 01 09:25:40
  TRACK 36 AUDIO
    TITLE "00:09:44.26957"
    PERFORMER "Владимир Михайлович Зазнобин. Видеоархив"
    INDEX 01 09:44:20
  TRACK 37 AUDIO
    TITLE "00:10:02.59653"
    PERFORMER "Владимир Михайлович Зазнобин. Видеоархив"
    INDEX 01 10:02:45
  TRACK 38 AUDIO
    TITLE "00:10:16.91388"
    PERFORMER "Владимир Михайлович Зазнобин. Видеоархив"
    INDEX 01 10:16:69
  TRACK 39 AUDIO
    TITLE "00:10:35.70757"
    PERFORMER "Владимир Михайлович Зазнобин. Видеоархив"
    INDEX 01 10:35:53
  TRACK 40 AUDIO
    TITLE "00:11:10.28388"
    PERFORMER "Владимир Михайлович Зазнобин. Видеоархив"
    INDEX 01 11:10:21
  TRACK 41 AUDIO
    TITLE "00:11:24.88497"
    PERFORMER "Владимир Михайлович Зазнобин. Видеоархив"
    INDEX 01 11:24:66
  TRACK 42 AUDIO
    TITLE "00:11:42.95281"
    PERFORMER "Владимир Михайлович Зазнобин. Видеоархив"
    INDEX 01 11:42:71
  TRACK 43 AUDIO
    TITLE "00:11:58.42744"
    PERFORMER "Владимир Михайлович Зазнобин. Видеоархив"
    INDEX 01 11:58:32
  TRACK 44 AUDIO
    TITLE "00:12:14.94930"
    PERFORMER "Владимир Михайлович Зазнобин. Видеоархив"
    INDEX 01 12:14:71
  TRACK 45 AUDIO
    TITLE "00:12:29.28662"
    PERFORMER "Владимир Михайлович Зазнобин. Видеоархив"
    INDEX 01 12:29:21
  TRACK 46 AUDIO
    TITLE "00:12:43.02719"
    PERFORMER "Владимир Михайлович Зазнобин. Видеоархив"
    INDEX 01 12:43:02
  TRACK 47 AUDIO
    TITLE "00:13:00.81454"
    PERFORMER "Владимир Михайлович Зазнобин. Видеоархив"
    INDEX 01 13:00:61
  TRACK 48 AUDIO
    TITLE "00:13:21.48533"
    PERFORMER "Владимир Михайлович Зазнобин. Видеоархив"
    INDEX 01 13:21:36
  TRACK 49 AUDIO
    TITLE "00:13:45.26574"
    PERFORMER "Владимир Михайлович Зазнобин. Видеоархив"
    INDEX 01 13:45:20
  TRACK 50 AUDIO
    TITLE "00:14:05.39503"
    PERFORMER "Владимир Михайлович Зазнобин. Видеоархив"
    INDEX 01 14:05:30
  TRACK 51 AUDIO
    TITLE "00:14:24.23472"
    PERFORMER "Владимир Михайлович Зазнобин. Видеоархив"
    INDEX 01 14:24:18
  TRACK 52 AUDIO
    TITLE "00:14:41.64172"
    PERFORMER "Владимир Михайлович Зазнобин. Видеоархив"
    INDEX 01 14:41:48
  TRACK 53 AUDIO
    TITLE "00:14:55.99018"
    PERFORMER "Владимир Михайлович Зазнобин. Видеоархив"
    INDEX 01 14:55:74
  TRACK 54 AUDIO
    TITLE "00:15:10.80537"
    PERFORMER "Владимир Михайлович Зазнобин. Видеоархив"
    INDEX 01 15:10:60
  TRACK 55 AUDIO
    TITLE "00:15:41.45424"
    PERFORMER "Владимир Михайлович Зазнобин. Видеоархив"
    INDEX 01 15:41:34
  TRACK 56 AUDIO
    TITLE "00:15:59.01635"
    PERFORMER "Владимир Михайлович Зазнобин. Видеоархив"
    INDEX 01 15:59:01
  TRACK 57 AUDIO
    TITLE "00:16:17.11948"
    PERFORMER "Владимир Михайлович Зазнобин. Видеоархив"
    INDEX 01 16:17:09
  TRACK 58 AUDIO
    TITLE "00:16:31.18281"
    PERFORMER "Владимир Михайлович Зазнобин. Видеоархив"
    INDEX 01 16:31:14
  TRACK 59 AUDIO
    TITLE "00:16:49.28639"
    PERFORMER "Владимир Михайлович Зазнобин. Видеоархив"
    INDEX 01 16:49:21
  TRACK 60 AUDIO
    TITLE "00:17:03.48673"
    PERFORMER "Владимир Михайлович Зазнобин. Видеоархив"
    INDEX 01 17:03:37
  TRACK 61 AUDIO
    TITLE "00:17:27.04469"
    PERFORMER "Владимир Михайлович Зазнобин. Видеоархив"
    INDEX 01 17:27:03
  TRACK 62 AUDIO
    TITLE "00:17:53.81583"
    PERFORMER "Владимир Михайлович Зазнобин. Видеоархив"
    INDEX 01 17:53:61
  TRACK 63 AUDIO
    TITLE "00:18:07.83551"
    PERFORMER "Владимир Михайлович Зазнобин. Видеоархив"
    INDEX 01 18:07:63
  TRACK 64 AUDIO
    TITLE "00:18:21.67034"
    PERFORMER "Владимир Михайлович Зазнобин. Видеоархив"
    INDEX 01 18:21:50
  TRACK 65 AUDIO
    TITLE "00:18:35.61247"
    PERFORMER "Владимир Михайлович Зазнобин. Видеоархив"
    INDEX 01 18:35:46
  TRACK 66 AUDIO
    TITLE "00:18:49.16449"
    PERFORMER "Владимир Михайлович Зазнобин. Видеоархив"
    INDEX 01 18:49:12
  TRACK 67 AUDIO
    TITLE "00:19:21.20889"
    PERFORMER "Владимир Михайлович Зазнобин. Видеоархив"
    INDEX 01 19:21:16
  TRACK 68 AUDIO
    TITLE "00:19:48.24333"
    PERFORMER "Владимир Михайлович Зазнобин. Видеоархив"
    INDEX 01 19:48:18
  TRACK 69 AUDIO
    TITLE "00:20:13.60270"
    PERFORMER "Владимир Михайлович Зазнобин. Видеоархив"
    INDEX 01 20:13:45
  TRACK 70 AUDIO
    TITLE "00:20:30.92240"
    PERFORMER "Владимир Михайлович Зазнобин. Видеоархив"
    INDEX 01 20:30:69
  TRACK 71 AUDIO
    TITLE "00:20:46.52009"
    PERFORMER "Владимир Михайлович Зазнобин. Видеоархив"
    INDEX 01 20:46:39
  TRACK 72 AUDIO
    TITLE "00:21:00.47707"
    PERFORMER "Владимир Михайлович Зазнобин. Видеоархив"
    INDEX 01 21:00:36
  TRACK 73 AUDIO
    TITLE "00:21:17.04862"
    PERFORMER "Владимир Михайлович Зазнобин. Видеоархив"
    INDEX 01 21:17:04
  TRACK 74 AUDIO
    TITLE "00:21:30.25327"
    PERFORMER "Владимир Михайлович Зазнобин. Видеоархив"
    INDEX 01 21:30:19
  TRACK 75 AUDIO
    TITLE "00:21:44.79447"
    PERFORMER "Владимир Михайлович Зазнобин. Видеоархив"
    INDEX 01 21:44:60
  TRACK 76 AUDIO
    TITLE "00:22:02.46431"
    PERFORMER "Владимир Михайлович Зазнобин. Видеоархив"
    INDEX 01 22:02:35
  TRACK 77 AUDIO
    TITLE "00:22:25.91639"
    PERFORMER "Владимир Михайлович Зазнобин. Видеоархив"
    INDEX 01 22:25:69
  TRACK 78 AUDIO
    TITLE "00:22:57.84236"
    PERFORMER "Владимир Михайлович Зазнобин. Видеоархив"
    INDEX 01 22:57:63
  TRACK 79 AUDIO
    TITLE "00:23:19.42896"
    PERFORMER "Владимир Михайлович Зазнобин. Видеоархив"
    INDEX 01 23:19:32
  TRACK 80 AUDIO
    TITLE "00:23:43.73785"
    PERFORMER "Владимир Михайлович Зазнобин. Видеоархив"
    INDEX 01 23:43:55
  TRACK 81 AUDIO
    TITLE "00:24:04.89070"
    PERFORMER "Владимир Михайлович Зазнобин. Видеоархив"
    INDEX 01 24:04:67
  TRACK 82 AUDIO
    TITLE "00:24:21.34009"
    PERFORMER "Владимир Михайлович Зазнобин. Видеоархив"
    INDEX 01 24:21:26
  TRACK 83 AUDIO
    TITLE "00:24:35.64492"
    PERFORMER "Владимир Михайлович Зазнобин. Видеоархив"
    INDEX 01 24:35:48
  TRACK 84 AUDIO
    TITLE "00:24:49.40265"
    PERFORMER "Владимир Михайлович Зазнобин. Видеоархив"
    INDEX 01 24:49:30
  TRACK 85 AUDIO
    TITLE "00:25:04.66229"
    PERFORMER "Владимир Михайлович Зазнобин. Видеоархив"
    INDEX 01 25:04:50
  TRACK 86 AUDIO
    TITLE "00:25:21.85891"
    PERFORMER "Владимир Михайлович Зазнобин. Видеоархив"
    INDEX 01 25:21:64
  TRACK 87 AUDIO
    TITLE "00:25:41.17134"
    PERFORMER "Владимир Михайлович Зазнобин. Видеоархив"
    INDEX 01 25:41:13
  TRACK 88 AUDIO
    TITLE "00:26:02.75188"
    PERFORMER "Владимир Михайлович Зазнобин. Видеоархив"
    INDEX 01 26:02:56
  TRACK 89 AUDIO
    TITLE "00:26:17.50531"
    PERFORMER "Владимир Михайлович Зазнобин. Видеоархив"
    INDEX 01 26:17:38
  TRACK 90 AUDIO
    TITLE "00:26:37.10612"
    PERFORMER "Владимир Михайлович Зазнобин. Видеоархив"
    INDEX 01 26:37:08
  TRACK 91 AUDIO
    TITLE "00:26:51.30181"
    PERFORMER "Владимир Михайлович Зазнобин. Видеоархив"
    INDEX 01 26:51:23
  TRACK 92 AUDIO
    TITLE "00:27:38.28916"
    PERFORMER "Владимир Михайлович Зазнобин. Видеоархив"
    INDEX 01 27:38:22
  TRACK 93 AUDIO
    TITLE "00:27:53.18562"
    PERFORMER "Владимир Михайлович Зазнобин. Видеоархив"
    INDEX 01 27:53:14
  TRACK 94 AUDIO
    TITLE "00:28:08.26646"
    PERFORMER "Владимир Михайлович Зазнобин. Видеоархив"
    INDEX 01 28:08:20
  TRACK 95 AUDIO
    TITLE "00:28:23.04821"
    PERFORMER "Владимир Михайлович Зазнобин. Видеоархив"
    INDEX 01 28:23:04
  TRACK 96 AUDIO
    TITLE "00:28:45.77211"
    PERFORMER "Владимир Михайлович Зазнобин. Видеоархив"
    INDEX 01 28:45:58
  TRACK 97 AUDIO
    TITLE "00:29:00.84132"
    PERFORMER "Владимир Михайлович Зазнобин. Видеоархив"
    INDEX 01 29:00:63
  TRACK 98 AUDIO
    TITLE "00:29:28.70333"
    PERFORMER "Владимир Михайлович Зазнобин. Видеоархив"
    INDEX 01 29:28:53
  TRACK 99 AUDIO
    TITLE "00:29:50.78079"
    PERFORMER "Владимир Михайлович Зазнобин. Видеоархив"
    INDEX 01 29:50:59
  TRACK 100 AUDIO
    TITLE "00:30:14.61229"
    PERFORMER "Владимир Михайлович Зазнобин. Видеоархив"
    INDEX 01 30:14:46
  TRACK 101 AUDIO
    TITLE "00:30:32.55195"
    PERFORMER "Владимир Михайлович Зазнобин. Видеоархив"
    INDEX 01 30:32:41
  TRACK 102 AUDIO
    TITLE "00:30:49.86190"
    PERFORMER "Владимир Михайлович Зазнобин. Видеоархив"
    INDEX 01 30:49:65
  TRACK 103 AUDIO
    TITLE "00:31:03.85184"
    PERFORMER "Владимир Михайлович Зазнобин. Видеоархив"
    INDEX 01 31:03:64
  TRACK 104 AUDIO
    TITLE "00:31:18.74878"
    PERFORMER "Владимир Михайлович Зазнобин. Видеоархив"
    INDEX 01 31:18:56
  TRACK 105 AUDIO
    TITLE "00:31:40.75100"
    PERFORMER "Владимир Михайлович Зазнобин. Видеоархив"
    INDEX 01 31:40:56
  TRACK 106 AUDIO
    TITLE "00:32:03.78420"
    PERFORMER "Владимир Михайлович Зазнобин. Видеоархив"
    INDEX 01 32:03:59
  TRACK 107 AUDIO
    TITLE "00:32:20.85914"
    PERFORMER "Владимир Михайлович Зазнобин. Видеоархив"
    INDEX 01 32:20:64
  TRACK 108 AUDIO
    TITLE "00:32:35.17696"
    PERFORMER "Владимир Михайлович Зазнобин. Видеоархив"
    INDEX 01 32:35:13
  TRACK 109 AUDIO
    TITLE "00:32:51.46893"
    PERFORMER "Владимир Михайлович Зазнобин. Видеоархив"
    INDEX 01 32:51:35
  TRACK 110 AUDIO
    TITLE "00:33:04.96848"
    PERFORMER "Владимир Михайлович Зазнобин. Видеоархив"
    INDEX 01 33:04:73
  TRACK 111 AUDIO
    TITLE "00:33:22.27796"
    PERFORMER "Владимир Михайлович Зазнобин. Видеоархив"
    INDEX 01 33:22:21
  TRACK 112 AUDIO
    TITLE "00:33:40.41034"
    PERFORMER "Владимир Михайлович Зазнобин. Видеоархив"
    INDEX 01 33:40:31
  TRACK 113 AUDIO
    TITLE "00:34:01.57295"
    PERFORMER "Владимир Михайлович Зазнобин. Видеоархив"
    INDEX 01 34:01:43
  TRACK 114 AUDIO
    TITLE "00:34:22.73646"
    PERFORMER "Владимир Михайлович Зазнобин. Видеоархив"
    INDEX 01 34:22:55
  TRACK 115 AUDIO
    TITLE "00:34:37.51170"
    PERFORMER "Владимир Михайлович Зазнобин. Видеоархив"
    INDEX 01 34:37:38
  TRACK 116 AUDIO
    TITLE "00:34:53.71406"
    PERFORMER "Владимир Михайлович Зазнобин. Видеоархив"
    INDEX 01 34:53:54
  TRACK 117 AUDIO
    TITLE "00:35:15.08145"
    PERFORMER "Владимир Михайлович Зазнобин. Видеоархив"
    INDEX 01 35:15:06
  TRACK 118 AUDIO
    TITLE "00:35:28.51179"
    PERFORMER "Владимир Михайлович Зазнобин. Видеоархив"
    INDEX 01 35:28:38
  TRACK 119 AUDIO
    TITLE "00:35:44.22791"
    PERFORMER "Владимир Михайлович Зазнобин. Видеоархив"
    INDEX 01 35:44:17
  TRACK 120 AUDIO
    TITLE "00:35:59.69560"
    PERFORMER "Владимир Михайлович Зазнобин. Видеоархив"
    INDEX 01 35:59:52
  TRACK 121 AUDIO
    TITLE "00:36:26.79692"
    PERFORMER "Владимир Михайлович Зазнобин. Видеоархив"
    INDEX 01 36:26:60
  TRACK 122 AUDIO
    TITLE "00:36:42.09787"
    PERFORMER "Владимир Михайлович Зазнобин. Видеоархив"
    INDEX 01 36:42:07
  TRACK 123 AUDIO
    TITLE "00:36:56.15238"
    PERFORMER "Владимир Михайлович Зазнобин. Видеоархив"
    INDEX 01 36:56:11
  TRACK 124 AUDIO
    TITLE "00:37:12.26556"
    PERFORMER "Владимир Михайлович Зазнобин. Видеоархив"
    INDEX 01 37:12:20
  TRACK 125 AUDIO
    TITLE "00:37:37.50975"
    PERFORMER "Владимир Михайлович Зазнобин. Видеоархив"
    INDEX 01 37:37:38
  TRACK 126 AUDIO
    TITLE "00:37:52.65002"
    PERFORMER "Владимир Михайлович Зазнобин. Видеоархив"
    INDEX 01 37:52:49
  TRACK 127 AUDIO
    TITLE "00:38:09.32095"
    PERFORMER "Владимир Михайлович Зазнобин. Видеоархив"
    INDEX 01 38:09:24
  TRACK 128 AUDIO
    TITLE "00:38:30.80304"
    PERFORMER "Владимир Михайлович Зазнобин. Видеоархив"
    INDEX 01 38:30:60
  TRACK 129 AUDIO
    TITLE "00:38:44.48417"
    PERFORMER "Владимир Михайлович Зазнобин. Видеоархив"
    INDEX 01 38:44:36
  TRACK 130 AUDIO
    TITLE "00:38:58.50059"
    PERFORMER "Владимир Михайлович Зазнобин. Видеоархив"
    INDEX 01 38:58:38
  TRACK 131 AUDIO
    TITLE "00:39:13.52615"
    PERFORMER "Владимир Михайлович Зазнобин. Видеоархив"
    INDEX 01 39:13:39
  TRACK 132 AUDIO
    TITLE "00:39:28.04041"
    PERFORMER "Владимир Михайлович Зазнобин. Видеоархив"
    INDEX 01 39:28:03
  TRACK 133 AUDIO
    TITLE "00:39:44.23764"
    PERFORMER "Владимир Михайлович Зазнобин. Видеоархив"
    INDEX 01 39:44:18
  TRACK 134 AUDIO
    TITLE "00:40:06.03880"
    PERFORMER "Владимир Михайлович Зазнобин. Видеоархив"
    INDEX 01 40:06:03
  TRACK 135 AUDIO
    TITLE "00:40:23.83914"
    PERFORMER "Владимир Михайлович Зазнобин. Видеоархив"
    INDEX 01 40:23:63
  TRACK 136 AUDIO
    TITLE "00:40:39.62957"
    PERFORMER "Владимир Михайлович Зазнобин. Видеоархив"
    INDEX 01 40:39:47
  TRACK 137 AUDIO
    TITLE "00:40:53.85218"
    PERFORMER "Владимир Михайлович Зазнобин. Видеоархив"
    INDEX 01 40:53:64
  TRACK 138 AUDIO
    TITLE "00:41:11.70175"
    PERFORMER "Владимир Михайлович Зазнобин. Видеоархив"
    INDEX 01 41:11:53
  TRACK 139 AUDIO
    TITLE "00:41:25.06569"
    PERFORMER "Владимир Михайлович Зазнобин. Видеоархив"
    INDEX 01 41:25:05
  TRACK 140 AUDIO
    TITLE "00:41:47.19422"
    PERFORMER "Владимир Михайлович Зазнобин. Видеоархив"
    INDEX 01 41:47:15
  TRACK 141 AUDIO
    TITLE "00:42:06.70404"
    PERFORMER "Владимир Михайлович Зазнобин. Видеоархив"
    INDEX 01 42:06:53
  TRACK 142 AUDIO
    TITLE "00:42:25.11041"
    PERFORMER "Владимир Михайлович Зазнобин. Видеоархив"
    INDEX 01 42:25:08
  TRACK 143 AUDIO
    TITLE "00:42:39.64927"
    PERFORMER "Владимир Михайлович Зазнобин. Видеоархив"
    INDEX 01 42:39:49
  TRACK 144 AUDIO
    TITLE "00:42:53.25703"
    PERFORMER "Владимир Михайлович Зазнобин. Видеоархив"
    INDEX 01 42:53:19
  TRACK 145 AUDIO
    TITLE "00:43:07.74249"
    PERFORMER "Владимир Михайлович Зазнобин. Видеоархив"
    INDEX 01 43:07:56
  TRACK 146 AUDIO
    TITLE "00:43:23.02254"
    PERFORMER "Владимир Михайлович Зазнобин. Видеоархив"
    INDEX 01 43:23:02
  TRACK 147 AUDIO
    TITLE "00:43:40.26329"
    PERFORMER "Владимир Михайлович Зазнобин. Видеоархив"
    INDEX 01 43:40:20
  TRACK 148 AUDIO
    TITLE "00:44:05.71601"
    PERFORMER "Владимир Михайлович Зазнобин. Видеоархив"
    INDEX 01 44:05:54
  TRACK 149 AUDIO
    TITLE "00:44:24.28168"
    PERFORMER "Владимир Михайлович Зазнобин. Видеоархив"
    INDEX 01 44:24:21
  TRACK 150 AUDIO
    TITLE "00:44:37.90429"
    PERFORMER "Владимир Михайлович Зазнобин. Видеоархив"
    INDEX 01 44:37:68
  TRACK 151 AUDIO
    TITLE "00:44:58.72136"
    PERFORMER "Владимир Михайлович Зазнобин. Видеоархив"
    INDEX 01 44:58:54
  TRACK 152 AUDIO
    TITLE "00:45:21.32268"
    PERFORMER "Владимир Михайлович Зазнобин. Видеоархив"
    INDEX 01 45:21:24
  TRACK 153 AUDIO
    TITLE "00:45:37.34297"
    PERFORMER "Владимир Михайлович Зазнобин. Видеоархив"
    INDEX 01 45:37:26
  TRACK 154 AUDIO
    TITLE "00:45:50.61914"
    PERFORMER "Владимир Михайлович Зазнобин. Видеоархив"
    INDEX 01 45:50:46
  TRACK 155 AUDIO
    TITLE "00:46:04.98805"
    PERFORMER "Владимир Михайлович Зазнобин. Видеоархив"
    INDEX 01 46:04:74
  TRACK 156 AUDIO
    TITLE "00:46:20.45757"
    PERFORMER "Владимир Михайлович Зазнобин. Видеоархив"
    INDEX 01 46:20:34
  TRACK 157 AUDIO
    TITLE "00:46:36.70218"
    PERFORMER "Владимир Михайлович Зазнобин. Видеоархив"
    INDEX 01 46:36:53
  TRACK 158 AUDIO
    TITLE "00:46:54.03533"
    PERFORMER "Владимир Михайлович Зазнобин. Видеоархив"
    INDEX 01 46:54:03
  TRACK 159 AUDIO
    TITLE "00:47:11.56494"
    PERFORMER "Владимир Михайлович Зазнобин. Видеоархив"
    INDEX 01 47:11:42
  TRACK 160 AUDIO
    TITLE "00:47:27.61914"
    PERFORMER "Владимир Михайлович Зазнобин. Видеоархив"
    INDEX 01 47:27:46
  TRACK 161 AUDIO
    TITLE "00:47:41.64066"
    PERFORMER "Владимир Михайлович Зазнобин. Видеоархив"
    INDEX 01 47:41:48
  TRACK 162 AUDIO
    TITLE "00:47:56.19068"
    PERFORMER "Владимир Михайлович Зазнобин. Видеоархив"
    INDEX 01 47:56:14
  TRACK 163 AUDIO
    TITLE "00:48:11.93002"
    PERFORMER "Владимир Михайлович Зазнобин. Видеоархив"
    INDEX 01 48:11:70
  TRACK 164 AUDIO
    TITLE "00:48:25.93762"
    PERFORMER "Владимир Михайлович Зазнобин. Видеоархив"
    INDEX 01 48:25:70
  TRACK 165 AUDIO
    TITLE "00:48:40.71519"
    PERFORMER "Владимир Михайлович Зазнобин. Видеоархив"
    INDEX 01 48:40:54
  TRACK 166 AUDIO
    TITLE "00:49:02.69327"
    PERFORMER "Владимир Михайлович Зазнобин. Видеоархив"
    INDEX 01 49:02:52
  TRACK 167 AUDIO
    TITLE "00:49:23.94828"
    PERFORMER "Владимир Михайлович Зазнобин. Видеоархив"
    INDEX 01 49:23:71
  TRACK 168 AUDIO
    TITLE "00:49:41.79971"
    PERFORMER "Владимир Михайлович Зазнобин. Видеоархив"
    INDEX 01 49:41:60
  TRACK 169 AUDIO
    TITLE "00:49:57.81583"
    PERFORMER "Владимир Михайлович Зазнобин. Видеоархив"
    INDEX 01 49:57:61
  TRACK 170 AUDIO
    TITLE "00:50:15.96308"
    PERFORMER "Владимир Михайлович Зазнобин. Видеоархив"
    INDEX 01 50:15:72
  TRACK 171 AUDIO
    TITLE "00:50:34.62163"
    PERFORMER "Владимир Михайлович Зазнобин. Видеоархив"
    INDEX 01 50:34:47
  TRACK 172 AUDIO
    TITLE "00:50:57.56243"
    PERFORMER "Владимир Михайлович Зазнобин. Видеоархив"
    INDEX 01 50:57:42
  TRACK 173 AUDIO
    TITLE "00:51:16.01941"
    PERFORMER "Владимир Михайлович Зазнобин. Видеоархив"
    INDEX 01 51:16:01
  TRACK 174 AUDIO
    TITLE "00:51:29.41447"
    PERFORMER "Владимир Михайлович Зазнобин. Видеоархив"
    INDEX 01 51:29:31
  TRACK 175 AUDIO
    TITLE "00:51:46.01853"
    PERFORMER "Владимир Михайлович Зазнобин. Видеоархив"
    INDEX 01 51:46:01
  TRACK 176 AUDIO
    TITLE "00:52:00.03122"
    PERFORMER "Владимир Михайлович Зазнобин. Видеоархив"
    INDEX 01 52:00:02
  TRACK 177 AUDIO
    TITLE "00:52:14.97227"
    PERFORMER "Владимир Михайлович Зазнобин. Видеоархив"
    INDEX 01 52:14:73
  TRACK 178 AUDIO
    TITLE "00:52:34.17279"
    PERFORMER "Владимир Михайлович Зазнобин. Видеоархив"
    INDEX 01 52:34:13
  TRACK 179 AUDIO
    TITLE "00:52:49.86383"
    PERFORMER "Владимир Михайлович Зазнобин. Видеоархив"
    INDEX 01 52:49:65
  TRACK 180 AUDIO
    TITLE "00:53:03.34943"
    PERFORMER "Владимир Михайлович Зазнобин. Видеоархив"
    INDEX 01 53:03:26
  TRACK 181 AUDIO
    TITLE "00:53:16.46633"
    PERFORMER "Владимир Михайлович Зазнобин. Видеоархив"
    INDEX 01 53:16:35
  TRACK 182 AUDIO
    TITLE "00:53:40.17150"
    PERFORMER "Владимир Михайлович Зазнобин. Видеоархив"
    INDEX 01 53:40:13
  TRACK 183 AUDIO
    TITLE "00:53:54.38528"
    PERFORMER "Владимир Михайлович Зазнобин. Видеоархив"
    INDEX 01 53:54:29
  TRACK 184 AUDIO
    TITLE "00:54:11.11102"
    PERFORMER "Владимир Михайлович Зазнобин. Видеоархив"
    INDEX 01 54:11:08
  TRACK 185 AUDIO
    TITLE "00:54:25.05730"
    PERFORMER "Владимир Михайлович Зазнобин. Видеоархив"
    INDEX 01 54:25:04
  TRACK 186 AUDIO
    TITLE "00:54:41.58798"
    PERFORMER "Владимир Михайлович Зазнобин. Видеоархив"
    INDEX 01 54:41:44
  TRACK 187 AUDIO
    TITLE "00:55:00.79778"
    PERFORMER "Владимир Михайлович Зазнобин. Видеоархив"
    INDEX 01 55:00:60
  TRACK 188 AUDIO
    TITLE "00:55:18.96732"
    PERFORMER "Владимир Михайлович Зазнобин. Видеоархив"
    INDEX 01 55:18:73
  TRACK 189 AUDIO
    TITLE "00:55:42.06646"
    PERFORMER "Владимир Михайлович Зазнобин. Видеоархив"
    INDEX 01 55:42:05
  TRACK 190 AUDIO
    TITLE "00:55:59.57889"
    PERFORMER "Владимир Михайлович Зазнобин. Видеоархив"
    INDEX 01 55:59:43
  TRACK 191 AUDIO
    TITLE "00:56:15.92054"
    PERFORMER "Владимир Михайлович Зазнобин. Видеоархив"
    INDEX 01 56:15:69
  TRACK 192 AUDIO
    TITLE "00:56:31.12955"
    PERFORMER "Владимир Михайлович Зазнобин. Видеоархив"
    INDEX 01 56:31:10
  TRACK 193 AUDIO
    TITLE "00:56:45.51748"
    PERFORMER "Владимир Михайлович Зазнобин. Видеоархив"
    INDEX 01 56:45:39
  TRACK 194 AUDIO
    TITLE "00:57:02.68392"
    PERFORMER "Владимир Михайлович Зазнобин. Видеоархив"
    INDEX 01 57:02:51
  TRACK 195 AUDIO
    TITLE "00:57:18.99401"
    PERFORMER "Владимир Михайлович Зазнобин. Видеоархив"
    INDEX 01 57:19:00
  TRACK 196 AUDIO
    TITLE "00:57:36.89374"
    PERFORMER "Владимир Михайлович Зазнобин. Видеоархив"
    INDEX 01 57:36:67
  TRACK 197 AUDIO
    TITLE "00:57:51.00583"
    PERFORMER "Владимир Михайлович Зазнобин. Видеоархив"
    INDEX 01 57:51:00
  TRACK 198 AUDIO
    TITLE "00:58:04.66420"
    PERFORMER "Владимир Михайлович Зазнобин. Видеоархив"
    INDEX 01 58:04:50
  TRACK 199 AUDIO
    TITLE "00:58:19.90200"
    PERFORMER "Владимир Михайлович Зазнобин. Видеоархив"
    INDEX 01 58:19:68
  TRACK 200 AUDIO
    TITLE "00:58:37.28669"
    PERFORMER "Владимир Михайлович Зазнобин. Видеоархив"
    INDEX 01 58:37:22
  TRACK 201 AUDIO
    TITLE "00:58:50.90744"
    PERFORMER "Владимир Михайлович Зазнобин. Видеоархив"
    INDEX 01 58:50:68
  TRACK 202 AUDIO
    TITLE "00:59:13.45859"
    PERFORMER "Владимир Михайлович Зазнобин. Видеоархив"
    INDEX 01 59:13:34
  TRACK 203 AUDIO
    TITLE "00:59:29.31032"
    PERFORMER "Владимир Михайлович Зазнобин. Видеоархив"
    INDEX 01 59:29:23
  TRACK 204 AUDIO
    TITLE "00:59:47.06236"
    PERFORMER "Владимир Михайлович Зазнобин. Видеоархив"
    INDEX 01 59:47:05
  TRACK 205 AUDIO
    TITLE "01:00:01.16982"
    PERFORMER "Владимир Михайлович Зазнобин. Видеоархив"
    INDEX 01 60:01:13
  TRACK 206 AUDIO
    TITLE "01:00:14.21796"
    PERFORMER "Владимир Михайлович Зазнобин. Видеоархив"
    INDEX 01 60:14:16
  TRACK 207 AUDIO
    TITLE "01:00:29.10420"
    PERFORMER "Владимир Михайлович Зазнобин. Видеоархив"
    INDEX 01 60:29:08
  TRACK 208 AUDIO
    TITLE "01:00:49.16896"
    PERFORMER "Владимир Михайлович Зазнобин. Видеоархив"
    INDEX 01 60:49:13
  TRACK 209 AUDIO
    TITLE "01:01:03.97764"
    PERFORMER "Владимир Михайлович Зазнобин. Видеоархив"
    INDEX 01 61:03:73
  TRACK 210 AUDIO
    TITLE "01:01:24.26206"
    PERFORMER "Владимир Михайлович Зазнобин. Видеоархив"
    INDEX 01 61:24:20
